<?xml version="1.0" encoding="UTF-8" standalone="no"?>
<svg xmlns:dc="http://purl.org/dc/elements/1.1/" xmlns:cc="http://creativecommons.org/ns#" xmlns:rdf="http://www.w3.org/1999/02/22-rdf-syntax-ns#" xmlns:svg="http://www.w3.org/2000/svg" xmlns="http://www.w3.org/2000/svg" xmlns:sodipodi="http://sodipodi.sourceforge.net/DTD/sodipodi-0.dtd" xmlns:inkscape="http://www.inkscape.org/namespaces/inkscape" width="16px" height="16px" viewBox="0 0 16 16" id="svg2" version="1.1" inkscape:version="0.91 r13725" sodipodi:docname="215.svg">
  <defs id="defs4"/>
  <sodipodi:namedview id="base" pagecolor="#ffffff" bordercolor="#666666" borderopacity="1.0" inkscape:pageopacity="0.0" inkscape:pageshadow="2" inkscape:zoom="22.627417" inkscape:cx="5.904042" inkscape:cy="8.5141257" inkscape:document-units="px" inkscape:current-layer="g6386" showgrid="true" units="px" inkscape:window-width="1366" inkscape:window-height="715" inkscape:window-x="-8" inkscape:window-y="-8" inkscape:window-maximized="1">
    <inkscape:grid type="xygrid" id="grid3336"/>
  </sodipodi:namedview>
  
  <g inkscape:label="Layer 1" inkscape:groupmode="layer" id="layer1" transform="translate(0,-1036.3622)">
    <g id="g5446" transform="translate(-66.999329,19.499601)">
      <g id="g5460" transform="translate(67.012722,-18.496791)">
        <g id="g6386" transform="translate(0.0168932,-1.00281)">
          <path style="color:#000000;font-style:normal;font-variant:normal;font-weight:normal;font-stretch:normal;font-size:medium;line-height:normal;font-family:sans-serif;text-indent:0;text-align:start;text-decoration:none;text-decoration-line:none;text-decoration-style:solid;text-decoration-color:#000000;letter-spacing:normal;word-spacing:normal;text-transform:none;direction:ltr;block-progression:tb;writing-mode:lr-tb;baseline-shift:baseline;text-anchor:start;white-space:normal;clip-rule:nonzero;display:inline;overflow:visible;visibility:visible;opacity:1;isolation:auto;mix-blend-mode:normal;color-interpolation:sRGB;color-interpolation-filters:linearRGB;solid-color:#000000;solid-opacity:1;fill:#000000;fill-opacity:1;fill-rule:nonzero;stroke:none;stroke-width:1.00000012;stroke-linecap:butt;stroke-linejoin:miter;stroke-miterlimit:4;stroke-dasharray:none;stroke-dashoffset:0;stroke-opacity:1;color-rendering:auto;image-rendering:auto;shape-rendering:auto;text-rendering:auto;enable-background:accumulate" d="M 1.0039062 2.0039062 L 1.0039062 11.003906 L 7.03125 11.003906 L 7.03125 12.984375 L 5.03125 12.984375 L 5.03125 13.984375 L 10.03125 13.984375 L 10.03125 12.984375 L 8.03125 12.984375 L 8.03125 11.003906 L 8.9667969 11.003906 C 9.4909879 12.855581 11.45005 13.967953 13.349609 13.458984 C 15.26533 12.945584 16.416011 10.976228 15.914062 9.1113281 L 15.363281 7.0664062 L 14.003906 7.4316406 L 14.003906 2.0039062 L 1.0039062 2.0039062 z M 2.0039062 3.0039062 L 13.003906 3.0039062 L 13.003906 7.6992188 L 12.458984 7.8457031 L 11.695312 5.3457031 C 11.497424 4.6982031 10.811294 4.2781844 10.136719 4.4589844 C 9.4623035 4.6396844 9.0536952 5.3470844 9.234375 6.0214844 L 9.9082031 8.5351562 L 9.6484375 8.6035156 C 9.0265095 8.7701539 8.64361 9.3833041 8.7226562 10.003906 L 2.0039062 10.003906 L 2.0039062 3.0039062 z M 10.396484 5.4257812 C 10.552218 5.3837813 10.684889 5.4618188 10.738281 5.6367188 L 11.691406 8.7597656 L 11.693359 8.7636719 L 11.773438 9.0644531 L 14.65625 8.2910156 L 14.947266 9.3730469 C 15.303175 10.695347 14.487028 12.122294 13.091797 12.496094 C 11.696569 12.869994 10.276202 12.047125 9.9160156 10.703125 L 9.7148438 9.9121094 L 9.7128906 9.9121094 C 9.6711276 9.7505094 9.7523036 9.6121125 9.9082031 9.5703125 L 10.166016 9.5 L 10.539062 10.890625 L 11.503906 10.630859 L 10.201172 5.7636719 C 10.159372 5.6076719 10.240592 5.4675812 10.396484 5.4257812 z " transform="translate(-0.0302862,1036.3622)" id="rect4748-1"/>
        </g>
      </g>
    </g>
  </g>

	
	
	<metadata>
		<rdf:RDF xmlns:rdf="http://www.w3.org/1999/02/22-rdf-syntax-ns#" xmlns:rdfs="http://www.w3.org/2000/01/rdf-schema#" xmlns:dc="http://purl.org/dc/elements/1.1/">
			<rdf:Description about="https://iconscout.com/legal#licenses" dc:title="Pc, Touch, Touchscreen, Screen, Finger, Gesture, Laptop" dc:description="Pc, Touch, Touchscreen, Screen, Finger, Gesture, Laptop" dc:publisher="Iconscout" dc:date="2016-12-14" dc:format="image/svg+xml" dc:language="en">
				<dc:creator>
					<rdf:Bag>
						<rdf:li>Chamestudio</rdf:li>
					</rdf:Bag>
				</dc:creator>
			</rdf:Description>
		</rdf:RDF>
    </metadata></svg>
